<?xml version="1.0" encoding="UTF-8" standalone="no"?>
<svg
   width="16"
   height="16"
   version="1.1"
   id="svg1064"
   xmlns="http://www.w3.org/2000/svg"
   xmlns:svg="http://www.w3.org/2000/svg">
  <defs
     id="defs1068" />
  <path
     id="path5504"
     style="display:inline;fill:#000000;fill-opacity:1;stroke:none;stroke-width:2.74998;stroke-linecap:round;stroke-linejoin:miter;stroke-dashoffset:26.4;stroke-opacity:1;enable-background:new"
     d="M 10.5,3 A 5.5,5.5 0 0 0 5,8.5 5.5,5.5 0 0 0 10.5,14 5.5,5.5 0 0 0 16,8.5 5.5,5.5 0 0 0 15.53808,6.29516 L 10.5,11.33325 7.70702,8.54297 9.16797,7.08202 10.5,8.41406 14.34571,4.57104 A 5.5,5.5 0 0 0 10.5,3 Z" />
  <rect
     style="fill:#000000;fill-opacity:1;stroke:none;stroke-width:0.25;stroke-linecap:round;stroke-linejoin:round;stroke-dashoffset:26.4"
     id="rect6137"
     width="1"
     height="13"
     x="2"
     y="3" />
  <circle
     style="fill:#000000;fill-opacity:1;stroke:none;stroke-width:0.25;stroke-linecap:round;stroke-linejoin:round;stroke-dashoffset:26.4"
     id="circle6411"
     cx="2.5"
     cy="13"
     r="1.5" />
  <circle
     style="fill:#000000;fill-opacity:1;stroke:none;stroke-width:0.25;stroke-linecap:round;stroke-linejoin:round;stroke-dashoffset:26.4"
     id="circle21090"
     cx="2.5"
     cy="7.5"
     r="1.5" />
  <circle
     style="fill:#000000;fill-opacity:1;stroke:none;stroke-width:0.25;stroke-linecap:round;stroke-linejoin:round;stroke-dashoffset:26.4"
     id="circle21092"
     cx="2.5"
     cy="2"
     r="1.5" />
</svg>
