<svg xmlns="http://www.w3.org/2000/svg" width="16" height="16"><path d="M3 1C1.355 1 0 2.355 0 4v6c0 1.645 1.355 3 3 3h1v3l3-3v-1c0-.55-.45-1-1-1H3c-.57 0-1-.43-1-1V4c0-.555.445-1 1-1h10c.555 0 1 .445 1 1v2c0 .55.45 1 1 1s1-.45 1-1V4c0-1.645-1.355-3-3-3H3zm1.25 3C3.566 4 3 4.566 3 5.25V9h1V7h1v2h1V5.25C6 4.566 5.434 4 4.75 4h-.5zM7 4v2h5V4H7zM4.25 5h.5a.24.24 0 0 1 .25.25V6H4v-.75A.24.24 0 0 1 4.25 5zM7 7v2h2V7H7zm6.918 1.094-1 1c1 0 1.996 1.004 1.996 2l1-1c0-.996-.75-2-1.996-2zM11.996 10l-3.992 4L8 16h2l3.996-4c0-.996-1-2-2-2z"/></svg>