<svg xmlns="http://www.w3.org/2000/svg" width="16" height="16"><path d="M3 1C1.355 1 0 2.355 0 4v6c0 1.645 1.355 3 3 3h1v3l3-3v-1c0-.55-.45-1-1-1H3c-.57 0-1-.43-1-1V4c0-.555.445-1 1-1h10c.555 0 1 .445 1 1v4c0 .55.45 1 1 1s1-.45 1-1V4c0-1.645-1.355-3-3-3H3zm1 3c-.416 0-.762.281-.885.525C2.992 4.771 3 5 3 5v1c0 .416.281.762.525.885C3.771 7.008 4 7 4 7h1v1H3v1h2s.229.008.475-.115C5.719 8.762 6 8.416 6 8V7c0-.416-.281-.762-.525-.885C5.229 5.992 5 6 5 6H4V5h2V4H4zm3 0v2h5V4H7zm0 3v2h2V7H7zm4 1v3H8v2h3v3h2v-3h3v-2h-3V8h-2z"/></svg>